<svg xmlns="http://www.w3.org/2000/svg" viewBox="0 0 136.77 67.86"><defs><style>.cls-1{fill:#e60012}.cls-2{fill:#fff;stroke:#fff;stroke-width:3px}.cls-3{fill:#231815}.cls-4{fill:#004098}</style></defs><g id="レイヤー_2" data-name="レイヤー 2"><g id="レイヤー_1-2" data-name="レイヤー 1"><path class="cls-1" d="M123.28 4.65A10.11 10.11 0 0 0 117.66 0a9.15 9.15 0 0 1 3.47 3.49c5.78 10.72-14.23 31.88-44.68 47.25-29.68 15-58.33 18.94-65.11 9.19a7.78 7.78 0 0 0 .66 1.71c5.6 11 35.07 7.07 65.8-8.67s51.09-37.37 45.48-48.32z"/><path class="cls-2" d="M54.13 25.05a38.51 38.51 0 0 0 3-9.41h-2.75v-1.5h3c.18-1.1.26-1.79.4-3.15l1.7.07c-.21 1.38-.28 1.78-.51 3.08h1.93c2.09 0 3.82.45 3.82 4.52a15.81 15.81 0 0 1-.84 5.34 2.89 2.89 0 0 1-3.05 1.75 18.25 18.25 0 0 1-2.06-.12L58.7 24a9.57 9.57 0 0 0 1.91.21c1.17 0 1.64-.39 2-1.56a14.64 14.64 0 0 0 .52-4c0-2.92-1-3-3.08-3h-1.33a43.52 43.52 0 0 1-3.08 10.12zm13.53-4.72a11.8 11.8 0 0 0-2.49-7l1.3-.72c2 2 2.66 5.12 2.87 7.39zM76.73 11.42C75.55 14 74.5 16.88 74 18.25a3.79 3.79 0 0 1 2.59-1.11c2.7 0 2.84 2.49 2.84 3.7V22c0 1.26.14 2.22 1.55 2.22.86 0 1.75-.4 2.33-2.06a11.36 11.36 0 0 0 .58-3.75l1.52.35c-.1 2.31-.52 7-4.53 7-3 0-3-2.47-3-3.83V21c0-1.3-.32-2.33-1.56-2.33-.7 0-2.14.37-3.24 2.63a40.45 40.45 0 0 0-1.36 4.44l-1.65-.51c2.49-7.59 2.78-8.43 3.19-9.57.26-.74 1.27-3.54 1.69-4.67zM101.2 13.61c-.76-.06-1.3-.07-1.79-.07a4.83 4.83 0 0 0-1.77.21c-2.52.84-6 3.55-6 6.56 0 2.28 1.68 3 3.54 3.38a20.31 20.31 0 0 0 4.41.31l-.32 1.7c-3.44-.14-9.26-.38-9.26-5.28 0-3.33 3.07-5.62 5.13-6.83-.51 0-6.56.38-8.47.61l-.14-1.71c.86 0 3.89-.16 4.78-.21 4.15-.23 5.79-.27 9.8-.28zm-3.63 2.1A15.49 15.49 0 0 1 99.5 19l-1.23.78a14.41 14.41 0 0 0-1.84-3.38zm2.59-1.12a15.15 15.15 0 0 1 1.93 3.3l-1.23.78A15.23 15.23 0 0 0 99 15.29zM109.11 11.42c-1.18 2.59-2.23 5.46-2.7 6.83a3.79 3.79 0 0 1 2.59-1.11c2.7 0 2.84 2.49 2.84 3.7V22c0 1.26.14 2.22 1.55 2.22.86 0 1.75-.4 2.33-2.06a11.36 11.36 0 0 0 .58-3.75l1.52.35c-.1 2.31-.52 7-4.53 7-3 0-3-2.47-3-3.83V21c0-1.3-.32-2.33-1.56-2.33-.7 0-2.14.37-3.24 2.63a40.45 40.45 0 0 0-1.36 4.44l-1.65-.51c2.49-7.59 2.78-8.43 3.19-9.57.26-.74 1.27-3.54 1.69-4.67zM75.85 41.92a19.41 19.41 0 0 0-5-2.12l.62-1.37a19.07 19.07 0 0 1 5 2zm-4.08 4.74c6.85-.68 9.94-3.2 12.06-9.87l1.3 1c-2.49 7.23-5.73 9.59-13 10.6zm5.5-8.86a21.42 21.42 0 0 0-5.08-2.06l.63-1.33a20.89 20.89 0 0 1 5.18 1.9zM89.33 43.47v-1.33h7.86v-2.9h-8v-1.35h9.5v10.24H89v-1.4h8.18v-3.26zM105.89 43a15.41 15.41 0 0 0-1.4-4.27l1.31-.37a18.05 18.05 0 0 1 1.49 4.29zm-.11 4.71c5.43-1.12 7.88-3.5 8.87-9.79l1.53.32c-1.16 6-3.4 9.22-9.42 10.66zm3.94-5.52a19.33 19.33 0 0 0-1.16-4.19l1.3-.3a24 24 0 0 1 1.26 4.15zM129.64 35.44l1.94 2.2c-.53 2.77-1.07 4.82-2.78 6.88a11.79 11.79 0 0 1-7.55 4.13l-.75-1.48c5.64-.84 8.72-3.91 9.49-10.21H119.1v-1.52zm5.63-.47a2.43 2.43 0 1 1-2.43-2.44 2.43 2.43 0 0 1 2.43 2.47zm-3.78 0a1.35 1.35 0 1 0 1.35-1.35 1.36 1.36 0 0 0-1.35 1.38z"/><path class="cls-3" d="M54.13 25.05a38.51 38.51 0 0 0 3-9.41h-2.75v-1.5h3c.18-1.1.26-1.79.4-3.15l1.7.07c-.21 1.38-.28 1.78-.51 3.08h1.93c2.09 0 3.82.45 3.82 4.52a15.81 15.81 0 0 1-.84 5.34 2.89 2.89 0 0 1-3.05 1.75 18.25 18.25 0 0 1-2.06-.12L58.7 24a9.57 9.57 0 0 0 1.91.21c1.17 0 1.64-.39 2-1.56a14.64 14.64 0 0 0 .52-4c0-2.92-1-3-3.08-3h-1.33a43.52 43.52 0 0 1-3.08 10.12zm13.53-4.72a11.8 11.8 0 0 0-2.49-7l1.3-.72c2 2 2.66 5.12 2.87 7.39zM76.73 11.42C75.55 14 74.5 16.88 74 18.25a3.79 3.79 0 0 1 2.59-1.11c2.7 0 2.84 2.49 2.84 3.7V22c0 1.26.14 2.22 1.55 2.22.86 0 1.75-.4 2.33-2.06a11.36 11.36 0 0 0 .58-3.75l1.52.35c-.1 2.31-.52 7-4.53 7-3 0-3-2.47-3-3.83V21c0-1.3-.32-2.33-1.56-2.33-.7 0-2.14.37-3.24 2.63a40.45 40.45 0 0 0-1.36 4.44l-1.65-.51c2.49-7.59 2.78-8.43 3.19-9.57.26-.74 1.27-3.54 1.69-4.67zM101.2 13.61c-.76-.06-1.3-.07-1.79-.07a4.83 4.83 0 0 0-1.77.21c-2.52.84-6 3.55-6 6.56 0 2.28 1.68 3 3.54 3.38a20.31 20.31 0 0 0 4.41.31l-.32 1.7c-3.44-.14-9.26-.38-9.26-5.28 0-3.33 3.07-5.62 5.13-6.83-.51 0-6.56.38-8.47.61l-.14-1.71c.86 0 3.89-.16 4.78-.21 4.15-.23 5.79-.27 9.8-.28zm-3.63 2.1A15.49 15.49 0 0 1 99.5 19l-1.23.78a14.41 14.41 0 0 0-1.84-3.38zm2.59-1.12a15.15 15.15 0 0 1 1.93 3.3l-1.23.78A15.23 15.23 0 0 0 99 15.29zM109.11 11.42c-1.18 2.59-2.23 5.46-2.7 6.83a3.79 3.79 0 0 1 2.59-1.11c2.7 0 2.84 2.49 2.84 3.7V22c0 1.26.14 2.22 1.55 2.22.86 0 1.75-.4 2.33-2.06a11.36 11.36 0 0 0 .58-3.75l1.52.35c-.1 2.31-.52 7-4.53 7-3 0-3-2.47-3-3.83V21c0-1.3-.32-2.33-1.56-2.33-.7 0-2.14.37-3.24 2.63a40.45 40.45 0 0 0-1.36 4.44l-1.65-.51c2.49-7.59 2.78-8.43 3.19-9.57.26-.74 1.27-3.54 1.69-4.67zM75.85 41.92a19.41 19.41 0 0 0-5-2.12l.62-1.37a19.07 19.07 0 0 1 5 2zm-4.08 4.74c6.85-.68 9.94-3.2 12.06-9.87l1.3 1c-2.49 7.23-5.73 9.59-13 10.6zm5.5-8.86a21.42 21.42 0 0 0-5.08-2.06l.63-1.33a20.89 20.89 0 0 1 5.18 1.9zM89.33 43.47v-1.33h7.86v-2.9h-8v-1.35h9.5v10.24H89v-1.4h8.18v-3.26zM105.89 43a15.41 15.41 0 0 0-1.4-4.27l1.31-.37a18.05 18.05 0 0 1 1.49 4.29zm-.11 4.71c5.43-1.12 7.88-3.5 8.87-9.79l1.53.32c-1.16 6-3.4 9.22-9.42 10.66zm3.94-5.52a19.33 19.33 0 0 0-1.16-4.19l1.3-.3a24 24 0 0 1 1.26 4.15zM129.64 35.44l1.94 2.2c-.53 2.77-1.07 4.82-2.78 6.88a11.79 11.79 0 0 1-7.55 4.13l-.75-1.48c5.64-.84 8.72-3.91 9.49-10.21H119.1v-1.52zm5.63-.47a2.43 2.43 0 1 1-2.43-2.44 2.43 2.43 0 0 1 2.43 2.47zm-3.78 0a1.35 1.35 0 1 0 1.35-1.35 1.36 1.36 0 0 0-1.35 1.38z"/><path class="cls-4" d="M10.85 37.9a25.37 25.37 0 0 0-1.15 6.53c0 5 2.56 7.33 7.92 7.33 5.11 0 11-2.78 18.51-8.67a17.8 17.8 0 0 1 1.41-1.17l2.68 1.34C29.5 51.84 22.47 55.15 14.68 55.15 5.87 55.15 0 49.88 0 41.83 0 25.48 17.37 9.12 34.73 9.12c6.51 0 10.47 2.59 10.47 6.88 0 10.1-12 17.7-34.35 21.9zM33.2 11.8c-9.71 0-17.62 8.4-22 23.42 17.4-3.13 27.23-10.28 27.23-19.75 0-2.42-1.78-3.67-5.23-3.67z"/><path class="cls-3" d="M57.45 43.89a8 8 0 0 0-.38 2.11c0 1.65.84 2.42 2.6 2.42s3.62-.92 6.1-2.86a5.45 5.45 0 0 1 .46-.38l.88.44c-3.53 2.82-5.84 3.91-8.4 3.91-2.9 0-4.83-1.73-4.83-4.38 0-5.38 5.71-10.76 11.42-10.76 2.15 0 3.45.85 3.45 2.26 0 3.35-3.95 5.86-11.3 7.24zm7.35-8.59c-3.19 0-5.8 2.77-7.23 7.71 5.72-1 8.95-3.39 8.95-6.5 0-.8-.59-1.21-1.72-1.21z"/></g></g></svg>